<svg width="386" height="386" viewBox="0 0 386 386" fill="none" xmlns="http://www.w3.org/2000/svg">
<g clip-path="url(#clip0_11_61)">
<path d="M284.569 265.441C284.563 287.814 279.832 309.745 270.906 328.784C261.979 347.822 249.208 363.219 234.019 373.253C233.242 373.768 232.457 374.268 231.663 374.754C211.162 387.28 187.874 389.424 166.247 380.776C164.125 379.922 162.036 378.972 159.981 377.925C141.183 368.351 125.308 350.882 114.817 328.225C104.325 305.567 99.803 278.986 101.951 252.601C104.098 226.216 112.796 201.501 126.696 182.285C140.596 163.068 158.922 150.425 178.834 146.313C183.52 145.358 188.256 144.879 192.999 144.881C243.572 144.881 284.569 198.857 284.569 265.441Z" fill="#F2F2F2"/>
<path d="M291.212 282.623C304.863 263.109 311.887 233.895 304.527 209.199C293.683 234.268 276.453 253.479 255.886 263.433C247.944 267.234 238.809 270.373 234.495 279.94C231.811 285.893 231.62 293.344 232.837 300.079C234.054 306.814 236.553 313.007 239.027 319.116L239.043 320.844C258.375 313.363 277.561 302.136 291.212 282.623Z" fill="#E6E6E6"/>
<path d="M304.116 209.331C301.799 231.076 294.336 251.308 282.788 267.151C280.298 270.526 277.55 273.663 274.372 275.865C271.263 277.98 267.78 278.96 264.285 278.704C261.023 278.551 257.7 277.897 254.467 278.79C251.058 279.732 248.362 282.629 246.612 286.537C244.472 291.319 243.764 296.828 243.214 302.248C242.603 308.265 242.041 314.527 239.431 319.706C239.115 320.333 239.873 320.943 240.189 320.316C244.73 311.306 243.199 299.801 246.261 290.087C247.689 285.554 250.163 281.56 253.866 280.187C257.104 278.987 260.532 279.657 263.833 279.85C267.3 280.052 270.601 279.491 273.775 277.558C277.022 275.581 279.87 272.578 282.414 269.302C288.141 261.817 292.939 253.193 296.632 243.746C300.892 232.994 303.723 221.363 305.004 209.354C305.083 208.611 304.194 208.592 304.116 209.331V209.331Z" fill="white"/>
<path d="M286.734 262.338C289.016 264.528 291.816 265.578 294.632 265.302C297.448 265.026 300.098 263.441 302.108 260.83C302.513 260.3 301.907 259.445 301.501 259.976C299.632 262.412 297.164 263.888 294.541 264.139C291.918 264.389 289.314 263.396 287.198 261.34C286.738 260.894 286.277 261.894 286.734 262.338V262.338Z" fill="white"/>
<path d="M265.931 279.068C264.986 271.57 266.222 263.879 269.393 257.528C269.707 256.899 268.949 256.29 268.635 256.918C265.345 263.535 264.071 271.542 265.068 279.342C265.163 280.085 266.026 279.807 265.931 279.068Z" fill="white"/>
<path d="M299.717 232.883C298.7 232.277 297.813 231.349 297.136 230.181C296.459 229.013 296.012 227.642 295.837 226.191C295.749 225.446 294.886 225.725 294.974 226.465C295.173 228.067 295.667 229.58 296.413 230.873C297.16 232.165 298.135 233.198 299.254 233.88C299.355 233.956 299.475 233.978 299.588 233.942C299.702 233.906 299.8 233.815 299.864 233.686C299.925 233.554 299.944 233.395 299.916 233.245C299.889 233.094 299.817 232.964 299.717 232.883V232.883Z" fill="white"/>
<path d="M239.704 181.194C239.749 181.66 239.794 182.127 239.833 182.601C240.414 188.883 240.606 195.217 240.407 201.54C240.398 202.029 240.383 202.525 240.363 203.012C239.761 218.239 237.017 233.187 232.271 247.095C230.379 252.627 228.169 257.961 225.662 263.052C222.199 270.082 218.02 277.342 216.566 285.236C216.407 286.057 216.287 286.89 216.207 287.731L237.44 320.735C237.517 320.778 237.588 320.828 237.665 320.871L238.467 322.24C238.611 321.989 238.755 321.725 238.898 321.475C238.982 321.33 239.061 321.177 239.144 321.033C239.198 320.934 239.252 320.834 239.306 320.749C239.324 320.716 239.342 320.683 239.354 320.656C239.407 320.571 239.45 320.485 239.497 320.406C240.308 318.933 241.112 317.45 241.91 315.957C241.916 315.95 241.916 315.95 241.917 315.937C247.973 304.54 253.359 292.378 257.173 279.525C257.287 279.139 257.408 278.746 257.513 278.344C259.207 272.538 260.539 266.56 261.493 260.469C262.008 257.131 262.394 253.761 262.649 250.372C263.298 241.614 262.895 232.776 261.457 224.182C258.589 207.051 251.591 191.319 240.553 181.902C240.27 181.661 239.992 181.428 239.704 181.194Z" fill="#E6E6E6"/>
<path d="M239.433 181.623C247.527 200.822 250.821 222.891 248.846 244.695C248.401 249.362 247.641 254.047 246.111 258.323C244.596 262.477 242.263 266.02 239.355 268.585C236.681 271.049 233.728 273.161 231.555 276.437C229.265 279.89 228.436 284.342 228.827 288.849C229.304 294.364 231.258 299.323 233.298 304.086C235.562 309.375 237.977 314.82 238.261 321.024C238.295 321.776 239.179 321.661 239.145 320.911C238.65 310.117 232.167 302.144 230.169 291.961C229.237 287.21 229.386 282.06 231.715 278.029C233.751 274.503 236.794 272.322 239.518 269.859C242.379 267.272 244.758 264.208 246.408 260.149C248.097 255.996 248.997 251.341 249.531 246.709C250.681 236.192 250.568 225.503 249.196 215.033C247.681 203.072 244.622 191.541 240.153 180.937C239.877 180.281 239.158 180.971 239.433 181.623V181.623Z" fill="white"/>
<path d="M249.795 237.723C252.619 237.663 255.334 236.283 257.457 233.83C259.579 231.377 260.97 228.011 261.381 224.333C261.462 223.588 260.587 223.387 260.506 224.133C260.128 227.559 258.832 230.694 256.852 232.973C254.872 235.252 252.339 236.524 249.709 236.559C249.138 236.568 249.227 237.732 249.795 237.723V237.723Z" fill="white"/>
<path d="M240.836 267.571C236.653 262.334 234.122 255.213 233.75 247.629C233.713 246.878 232.829 246.992 232.866 247.742C233.265 255.634 235.91 263.037 240.272 268.474C240.688 268.992 241.25 268.086 240.836 267.571L240.836 267.571Z" fill="white"/>
<path d="M246.692 203.914C245.603 204.237 244.47 204.199 243.395 203.803C242.32 203.407 241.337 202.666 240.533 201.647C240.123 201.122 239.561 202.028 239.969 202.55C240.861 203.671 241.948 204.487 243.135 204.928C244.322 205.369 245.572 205.42 246.778 205.078C246.893 205.058 246.999 204.981 247.073 204.862C247.147 204.744 247.184 204.592 247.177 204.439C247.165 204.285 247.107 204.144 247.016 204.045C246.925 203.947 246.809 203.9 246.692 203.914H246.692Z" fill="white"/>
<path d="M385.517 23.421H0.483428C0.354269 23.4173 0.231367 23.3471 0.141034 23.2255C0.0507016 23.1039 0.00012207 22.9405 0.00012207 22.7705C0.00012207 22.6004 0.0507016 22.437 0.141034 22.3154C0.231367 22.1938 0.354269 22.1236 0.483428 22.1199H385.517C385.646 22.1236 385.769 22.1938 385.859 22.3154C385.949 22.437 386 22.6004 386 22.7705C386 22.9405 385.949 23.1039 385.859 23.2255C385.769 23.3471 385.646 23.4173 385.517 23.421V23.421Z" fill="#CACACA"/>
<path d="M11.3632 14.3129C14.2998 14.3129 16.6803 11.1088 16.6803 7.15644C16.6803 3.20405 14.2998 0 11.3632 0C8.4266 0 6.04602 3.20405 6.04602 7.15644C6.04602 11.1088 8.4266 14.3129 11.3632 14.3129Z" fill="#3F3D56"/>
<path d="M29.7316 14.3129C32.6682 14.3129 35.0488 11.1088 35.0488 7.15644C35.0488 3.20405 32.6682 0 29.7316 0C26.795 0 24.4144 3.20405 24.4144 7.15644C24.4144 11.1088 26.795 14.3129 29.7316 14.3129Z" fill="#3F3D56"/>
<path d="M48.1 14.3129C51.0366 14.3129 53.4172 11.1088 53.4172 7.15644C53.4172 3.20405 51.0366 0 48.1 0C45.1634 0 42.7828 3.20405 42.7828 7.15644C42.7828 11.1088 45.1634 14.3129 48.1 14.3129Z" fill="#3F3D56"/>
<path d="M374.511 4.37735H361.46C361.202 4.36988 360.956 4.22952 360.775 3.98632C360.594 3.74311 360.493 3.41641 360.493 3.07619C360.493 2.73597 360.594 2.40926 360.775 2.16606C360.956 1.92286 361.202 1.7825 361.46 1.77502H374.511C374.77 1.7825 375.015 1.92286 375.196 2.16606C375.377 2.40926 375.478 2.73597 375.478 3.07619C375.478 3.41641 375.377 3.74311 375.196 3.98632C375.015 4.22952 374.77 4.36988 374.511 4.37735Z" fill="#3F3D56"/>
<path d="M374.511 9.25676H361.46C361.202 9.24925 360.956 9.10887 360.775 8.86567C360.594 8.62247 360.493 8.29579 360.493 7.95559C360.493 7.61539 360.594 7.28871 360.775 7.04551C360.956 6.80231 361.202 6.66193 361.46 6.65442H374.511C374.769 6.66193 375.015 6.80231 375.196 7.04551C375.377 7.28871 375.478 7.61539 375.478 7.95559C375.478 8.29579 375.377 8.62247 375.196 8.86567C375.015 9.10887 374.769 9.24925 374.511 9.25676V9.25676Z" fill="#3F3D56"/>
<path d="M374.511 14.1362H361.46C361.202 14.1287 360.956 13.9883 360.775 13.7451C360.594 13.5019 360.493 13.1752 360.493 12.835C360.493 12.4948 360.594 12.1681 360.775 11.9249C360.956 11.6817 361.202 11.5413 361.46 11.5338H374.511C374.769 11.5413 375.015 11.6817 375.196 11.9249C375.377 12.1681 375.478 12.4948 375.478 12.835C375.478 13.1752 375.377 13.5019 375.196 13.7451C375.015 13.9883 374.769 14.1287 374.511 14.1362V14.1362Z" fill="#3F3D56"/>
<path d="M104.391 314.493C93.4999 298.924 87.8958 275.616 93.7679 255.913C102.42 275.914 116.166 291.241 132.575 299.183C138.912 302.215 146.199 304.72 149.641 312.353C151.783 317.102 151.935 323.047 150.965 328.42C149.994 333.793 148 338.735 146.026 343.608L146.013 344.987C130.589 339.019 115.282 330.061 104.391 314.493Z" fill="#E6E6E6"/>
<path d="M94.0957 256.018C95.9445 273.367 101.898 289.508 111.112 302.149C113.058 304.917 115.324 307.263 117.826 309.101C120.307 310.789 123.086 311.571 125.874 311.366C128.476 311.244 131.128 310.722 133.707 311.435C135.024 311.826 136.263 312.578 137.343 313.644C138.423 314.709 139.319 316.063 139.974 317.616C141.682 321.431 142.247 325.827 142.685 330.15C143.173 334.951 143.621 339.947 145.703 344.079C145.955 344.58 145.351 345.066 145.099 344.566C141.476 337.377 142.697 328.198 140.255 320.448C139.115 316.831 137.141 313.645 134.186 312.55C131.603 311.592 128.869 312.127 126.234 312.28C123.517 312.533 120.794 311.905 118.303 310.452C115.738 308.787 113.407 306.56 111.41 303.865C106.841 297.893 103.013 291.013 100.067 283.475C96.668 274.898 94.4089 265.618 93.3871 256.037C93.3241 255.444 94.033 255.429 94.0957 256.018L94.0957 256.018Z" fill="white"/>
<path d="M107.963 298.309C106.142 300.056 103.909 300.894 101.663 300.674C99.4157 300.453 97.3016 299.189 95.6976 297.106C95.3742 296.683 95.8582 296.001 96.1821 296.424C97.673 298.368 99.6424 299.546 101.735 299.745C103.827 299.945 105.905 299.153 107.593 297.513C107.961 297.157 108.328 297.955 107.963 298.309V298.309Z" fill="white"/>
<path d="M124.56 311.657C125.315 305.675 124.329 299.539 121.799 294.471C121.548 293.97 122.153 293.483 122.403 293.984C125.028 299.264 126.045 305.652 125.249 311.875C125.173 312.468 124.485 312.246 124.56 311.657V311.657Z" fill="white"/>
<path d="M97.6051 274.808C98.4166 274.326 99.1243 273.585 99.6646 272.653C100.205 271.721 100.561 270.627 100.701 269.47C100.771 268.876 101.46 269.098 101.39 269.688C101.231 270.966 100.836 272.174 100.241 273.205C99.6458 274.236 98.8678 275.06 97.9749 275.604C97.894 275.665 97.7987 275.682 97.7082 275.654C97.6177 275.625 97.5389 275.552 97.4878 275.45C97.4393 275.344 97.4243 275.217 97.4463 275.097C97.4683 274.977 97.5253 274.873 97.6051 274.808V274.808Z" fill="white"/>
<path d="M145.486 233.569C145.45 233.942 145.414 234.314 145.382 234.692C144.919 239.704 144.766 244.757 144.924 249.802C144.932 250.192 144.944 250.588 144.96 250.977C145.44 263.125 147.629 275.051 151.416 286.147C152.926 290.561 154.688 294.817 156.689 298.879C159.451 304.488 162.786 310.28 163.946 316.577C164.072 317.233 164.168 317.898 164.232 318.568L147.292 344.9C147.231 344.934 147.174 344.974 147.112 345.009L146.472 346.101C146.358 345.901 146.243 345.69 146.128 345.49C146.062 345.375 145.999 345.253 145.932 345.137C145.889 345.058 145.846 344.979 145.803 344.911C145.789 344.885 145.775 344.858 145.765 344.837C145.722 344.769 145.688 344.7 145.65 344.637C145.004 343.462 144.362 342.279 143.726 341.088C143.721 341.083 143.721 341.083 143.72 341.072C138.889 331.979 134.591 322.275 131.548 312.021C131.457 311.713 131.361 311.4 131.277 311.079C129.925 306.447 128.863 301.677 128.101 296.817C127.691 294.155 127.383 291.466 127.179 288.762C126.662 281.775 126.983 274.723 128.13 267.867C130.419 254.199 136.002 241.647 144.809 234.134C145.034 233.942 145.256 233.756 145.486 233.569Z" fill="#E6E6E6"/>
<path d="M145.702 233.911C139.244 249.229 136.616 266.837 138.192 284.232C138.481 287.985 139.217 291.655 140.374 295.106C141.583 298.42 143.444 301.247 145.764 303.293C147.898 305.258 150.253 306.943 151.987 309.558C152.86 310.913 153.504 312.496 153.88 314.202C154.255 315.909 154.352 317.701 154.164 319.46C153.783 323.86 152.224 327.817 150.597 331.617C148.791 335.836 146.864 340.181 146.637 345.131C146.609 345.73 145.904 345.639 145.932 345.04C146.326 336.429 151.499 330.068 153.093 321.943C153.837 318.153 153.718 314.044 151.86 310.827C150.235 308.015 147.807 306.274 145.634 304.309C143.349 302.356 141.461 299.696 140.137 296.562C138.85 293.2 138.008 289.574 137.646 285.839C136.728 277.449 136.818 268.921 137.913 260.567C139.122 251.025 141.562 241.824 145.127 233.365C145.348 232.841 145.921 233.391 145.702 233.911H145.702Z" fill="white"/>
<path d="M137.434 278.67C135.182 278.622 133.015 277.521 131.322 275.564C129.629 273.607 128.519 270.922 128.191 267.987C128.126 267.393 128.825 267.232 128.889 267.827C129.191 270.561 130.225 273.062 131.804 274.88C133.384 276.699 135.405 277.713 137.503 277.742C137.959 277.749 137.888 278.677 137.434 278.67V278.67Z" fill="white"/>
<path d="M144.582 302.484C147.92 298.306 149.939 292.625 150.236 286.574C150.265 285.974 150.97 286.065 150.941 286.664C150.623 292.96 148.513 298.866 145.032 303.205C144.701 303.618 144.252 302.895 144.582 302.484V302.484Z" fill="white"/>
<path d="M139.911 251.696C140.779 251.954 141.683 251.924 142.541 251.608C143.398 251.292 144.183 250.701 144.824 249.887C145.152 249.469 145.6 250.192 145.274 250.608C144.563 251.502 143.696 252.154 142.749 252.505C141.802 252.857 140.804 252.898 139.842 252.625C139.75 252.609 139.666 252.547 139.606 252.453C139.547 252.358 139.518 252.237 139.524 252.115C139.533 251.992 139.579 251.879 139.652 251.801C139.724 251.722 139.817 251.685 139.911 251.696V251.696Z" fill="white"/>
<path d="M356.962 69.2826H54.4268C53.9784 69.2833 53.5344 69.1676 53.12 68.9422C52.7056 68.7168 52.329 68.386 52.0118 67.9689C51.6945 67.5517 51.4429 67.0563 51.2712 66.511C51.0995 65.9657 51.0111 65.3812 51.0111 64.7909C51.0111 64.2006 51.0995 63.6161 51.2712 63.0708C51.4429 62.5255 51.6945 62.0301 52.0118 61.6129C52.329 61.1957 52.7056 60.865 53.12 60.6396C53.5344 60.4142 53.9784 60.2985 54.4268 60.2992H356.962C357.41 60.2985 357.855 60.4142 358.269 60.6396C358.683 60.865 359.06 61.1957 359.377 61.6129C359.694 62.0301 359.946 62.5255 360.118 63.0708C360.289 63.6161 360.378 64.2006 360.378 64.7909C360.378 65.3812 360.289 65.9657 360.118 66.511C359.946 67.0563 359.694 67.5517 359.377 67.9689C359.06 68.386 358.683 68.7168 358.269 68.9422C357.855 69.1676 357.41 69.2833 356.962 69.2826V69.2826Z" fill="#6C63FF"/>
<path d="M356.962 87.0314H54.4267C53.5218 87.0314 52.654 86.5581 52.0142 85.7157C51.3743 84.8734 51.0149 83.7308 51.0149 82.5395C51.0149 81.3482 51.3743 80.2056 52.0142 79.3633C52.654 78.5209 53.5218 78.0476 54.4267 78.0476H356.962C357.867 78.0476 358.735 78.5209 359.375 79.3633C360.014 80.2056 360.374 81.3482 360.374 82.5395C360.374 83.7308 360.014 84.8734 359.375 85.7157C358.735 86.5581 357.867 87.0314 356.962 87.0314V87.0314Z" fill="#6C63FF"/>
<path d="M297.698 104.78H54.4267C53.5218 104.78 52.654 104.307 52.0142 103.465C51.3743 102.622 51.0149 101.48 51.0149 100.288C51.0149 99.097 51.3743 97.9544 52.0142 97.112C52.654 96.2696 53.5218 95.7964 54.4267 95.7964H297.698C298.603 95.7964 299.471 96.2696 300.111 97.112C300.751 97.9544 301.11 99.097 301.11 100.288C301.11 101.48 300.751 102.622 300.111 103.465C299.471 104.307 298.603 104.78 297.698 104.78V104.78Z" fill="#6C63FF"/>
<path d="M337.192 249.999C340.601 253.046 344.392 256.475 345.49 262.037C345.743 263.225 345.81 264.468 345.689 265.691C345.567 266.914 345.259 268.092 344.782 269.155C343.907 271.075 342.604 272.583 341.332 274.037C339.822 275.764 338.299 277.462 337.127 279.618C336.59 280.606 337.831 281.547 338.362 280.569C340.535 276.571 344.146 274.306 346.058 270.016C348.32 264.942 346.811 258.925 344.008 254.817C342.259 252.253 340.066 250.296 337.914 248.373C337.15 247.69 336.433 249.322 337.192 249.999H337.192Z" fill="#E6E7E8"/>
<path d="M349.115 249.999C352.525 253.046 356.315 256.475 357.414 262.037C357.666 263.225 357.734 264.468 357.612 265.691C357.49 266.914 357.182 268.092 356.706 269.155C355.831 271.075 354.527 272.583 353.256 274.037C351.745 275.764 350.222 277.462 349.05 279.618C348.514 280.606 349.754 281.547 350.286 280.569C352.459 276.571 356.07 274.306 357.982 270.016C360.243 264.942 358.734 258.925 355.931 254.817C354.182 252.253 351.989 250.296 349.837 248.373C349.073 247.69 348.357 249.322 349.115 249.999H349.115Z" fill="#E6E7E8"/>
<path d="M58.8304 249.999C55.4207 253.046 51.6307 256.475 50.5319 262.037C50.2793 263.225 50.2117 264.468 50.3334 265.691C50.4551 266.914 50.7634 268.092 51.2398 269.155C52.1147 271.075 53.4184 272.583 54.6899 274.037C56.2006 275.764 57.7231 277.462 58.8951 279.618C59.4319 280.606 58.1915 281.547 57.6597 280.569C55.4869 276.571 51.876 274.306 49.9637 270.016C47.7022 264.942 49.2114 258.925 52.0141 254.817C53.7631 252.253 55.9563 250.296 58.1083 248.373C58.8721 247.69 59.5888 249.322 58.8304 249.999H58.8304Z" fill="#E6E7E8"/>
<path d="M46.9071 249.999C43.4974 253.046 39.7074 256.475 38.6086 262.037C38.3559 263.225 38.2884 264.468 38.4101 265.691C38.5318 266.914 38.8401 268.092 39.3165 269.155C40.1915 271.075 41.4951 272.583 42.7666 274.037C44.2772 275.764 45.7998 277.462 46.9718 279.618C47.5085 280.606 46.2681 281.547 45.7364 280.569C43.5635 276.571 39.9526 274.306 38.0404 270.016C35.7788 264.942 37.288 258.925 40.0907 254.817C41.8398 252.253 44.033 250.296 46.185 248.373C46.9488 247.69 47.6655 249.322 46.9071 249.999H46.9071Z" fill="#E6E7E8"/>
<path d="M178.43 184.788C184.575 184.788 189.557 178.23 189.557 170.139C189.557 162.048 184.575 155.49 178.43 155.49C172.284 155.49 167.303 162.048 167.303 170.139C167.303 178.23 172.284 184.788 178.43 184.788Z" fill="#2F2E41"/>
<path d="M196.233 240.457C211.801 240.457 224.421 223.841 224.421 203.344C224.421 182.848 211.801 166.232 196.233 166.232C180.665 166.232 168.044 182.848 168.044 203.344C168.044 223.841 180.665 240.457 196.233 240.457Z" fill="#2F2E41"/>
<path d="M198.565 240.447C211.216 240.447 221.472 226.945 221.472 210.29C221.472 193.634 211.216 180.132 198.565 180.132C185.915 180.132 175.659 193.634 175.659 210.29C175.659 226.945 185.915 240.447 198.565 240.447Z" fill="#9E616A"/>
<path d="M214.121 179.548C210.107 176.326 205.51 174.584 200.809 174.502C196.109 174.42 191.478 176.003 187.401 179.084C183.324 182.165 179.95 186.632 177.633 192.017C175.316 197.403 174.141 203.508 174.23 209.696C185.901 213.555 198.164 216.507 210.611 210.619L213.55 201.148L215.283 210.626C219.074 212.666 222.874 214.392 226.675 210.607C226.83 204.436 225.752 198.32 223.549 192.869C221.346 187.419 218.095 182.826 214.121 179.548V179.548Z" fill="#2F2E41"/>
<path d="M154.936 266.068H154.906C153.397 266.088 151.919 265.505 150.667 264.396C149.415 263.288 148.447 261.706 147.891 259.859C147.293 257.989 147.139 255.924 147.45 253.936C147.761 251.948 148.522 250.131 149.632 248.724L149.761 248.556C154.096 242.808 156.539 235.044 156.561 226.943C156.566 215.503 151.702 204.93 147.143 195.918L146.302 194.261C141.758 185.311 137.059 176.057 135.863 165.396C134.593 154.075 137.849 142.124 144.159 134.951C150.708 127.507 160.581 125.506 168.169 130.086C176.034 134.833 181.093 146.661 179.937 157.597L179.925 157.71L177.161 160.983L177.06 160.973C170.515 160.309 163.997 165.986 161.89 174.166C160.472 179.673 160.982 185.707 161.744 191.407C163.36 203.479 166.076 215.251 169.834 226.467C170.025 227.037 170.218 227.609 170.414 228.183C172.604 234.64 174.869 241.317 174.002 248.234C172.631 259.164 163.819 265.56 156.224 266.029C155.793 266.056 155.364 266.069 154.936 266.068Z" fill="#2F2E41"/>
<path d="M254.585 354.667C248.403 362.065 241.485 368.318 234.019 373.253L232.441 366.56L231.167 373.084L231.663 374.754C231.115 375.093 230.562 375.42 230.008 375.74C229.536 376.016 229.064 376.286 228.592 376.55C211.302 386.113 192.204 388.488 173.859 383.357C173.378 383.225 172.901 383.087 172.424 382.942C170.34 382.314 168.279 381.586 166.248 380.776L169.09 366.861L166.562 350.039L159.981 377.925C152.51 374.117 145.451 369.034 138.986 362.805C141.008 345.594 143.379 324.935 144.843 310.638C145.372 305.414 145.782 301.043 146.011 297.992C146.197 295.132 146.622 292.308 147.28 289.571C147.603 288.248 148.016 286.966 148.515 285.741C148.62 285.471 148.735 285.214 148.849 284.962C148.959 284.718 149.073 284.485 149.193 284.259C152.121 278.514 155.879 278.865 155.879 278.865L167.097 275.983L170.602 275.079L172.028 274.715L173.774 274.263C175.107 273.92 176.371 273.214 177.484 272.188C178.597 271.163 179.535 269.842 180.236 268.31L185 257.893C186.01 255.691 187.499 253.939 189.274 252.864C189.488 252.738 189.708 252.619 189.927 252.506C190.896 252.028 191.917 251.759 192.951 251.708L199.695 251.363L202.423 251.218L206.148 251.03C207.026 250.984 207.906 251.098 208.761 251.369H208.766C209.066 251.463 209.353 251.57 209.643 251.702C211.897 252.703 213.792 254.759 214.971 257.479L218.3 265.164C219.049 266.893 220.093 268.368 221.351 269.472C222.609 270.576 224.044 271.279 225.544 271.525L226.823 271.732L228.258 271.971L231.888 272.567L238.517 273.66L238.531 273.993C239.8 274.125 243.415 275.104 245.838 281.905C246 282.35 246.153 282.828 246.3 283.324C247.149 286.339 247.689 289.489 247.908 292.692C247.922 292.83 247.931 292.968 247.941 293.107C248.752 303.988 251.895 331.736 254.585 354.667Z" fill="#2F2E41"/>
<path d="M200.572 383.124L200.119 385.906L198.722 385.51L199.137 382.959C200.449 374.909 201.041 366.684 200.902 358.453L199.146 254.383L199.113 252.512L199.094 251.375L199.819 251.357L200.524 251.338L200.596 255.658L202.333 358.64C202.472 366.864 201.881 375.081 200.572 383.124V383.124Z" fill="#6C63FF"/>
<path d="M144.519 313.752L164.635 317.369L166.042 317.62L166.901 317.777L166.801 318.719L166.701 319.642L163.448 319.058L144.323 315.617L144.519 313.752Z" fill="#6C63FF"/>
<path d="M204.555 253.096L202.423 251.218L199.819 251.357L199.695 251.363L199.113 252.512L199.146 254.383L200.596 255.658L202.432 257.271C202.64 257.456 202.874 257.584 203.12 257.65C203.366 257.715 203.62 257.716 203.866 257.652C204.112 257.588 204.346 257.461 204.555 257.278C204.764 257.095 204.944 256.859 205.083 256.584C205.223 256.31 205.32 256.001 205.369 255.677C205.418 255.353 205.418 255.02 205.369 254.696C205.319 254.372 205.222 254.064 205.083 253.789C204.943 253.514 204.763 253.279 204.555 253.096H204.555ZM204.287 255.884C204.182 256.09 204.033 256.25 203.859 256.345C203.684 256.44 203.492 256.464 203.307 256.415C203.122 256.366 202.953 256.246 202.819 256.07C202.686 255.895 202.596 255.671 202.559 255.427C202.522 255.183 202.541 254.931 202.614 254.702C202.686 254.472 202.808 254.276 202.965 254.138C203.122 254 203.307 253.927 203.495 253.927C203.684 253.927 203.868 254 204.025 254.138C204.235 254.324 204.381 254.613 204.43 254.94C204.479 255.267 204.428 255.606 204.287 255.884V255.884Z" fill="#6C63FF"/>
</g>
<defs>
<clipPath id="clip0_11_61">
<rect width="386" height="386" fill="white"/>
</clipPath>
</defs>
</svg>
